<?xml version="1.0" encoding="UTF-8"?>
<!DOCTYPE svg PUBLIC "-//W3C//DTD SVG 1.1//EN" "http://www.w3.org/Graphics/SVG/1.1/DTD/svg11.dtd">
<!-- Creator: CorelDRAW X7 -->
<svg xmlns="http://www.w3.org/2000/svg" xml:space="preserve" width="210mm" height="297mm" version="1.1" style="shape-rendering:geometricPrecision; text-rendering:geometricPrecision; image-rendering:optimizeQuality; fill-rule:evenodd; clip-rule:evenodd"
viewBox="0 0 21000 29700"
 xmlns:xlink="http://www.w3.org/1999/xlink">
 <defs>
  <style type="text/css">
   <![CDATA[
    .str0 {stroke:#7DD0E4;stroke-width:7.62}
    .fil9 {fill:#FEFEFE}
    .fil0 {fill:#F59E42}
    .fil4 {fill:#7DD0E4}
    .fil2 {fill:#7DD0E4}
    .fil3 {fill:#38A0D9}
    .fil10 {fill:#38A0D9}
    .fil1 {fill:black}
    .fil8 {fill:url(#id0)}
    .fil6 {fill:url(#id1)}
    .fil5 {fill:url(#id2)}
    .fil7 {fill:url(#id3)}
   ]]>
  </style>
  <linearGradient id="id0" gradientUnits="userSpaceOnUse" x1="13403.2" y1="17577.4" x2="15644.5" y2="14479.5">
   <stop offset="0" style="stop-opacity:1; stop-color:#F59E42"/>
   <stop offset="1" style="stop-opacity:1; stop-color:#F75205"/>
  </linearGradient>
  <linearGradient id="id1" gradientUnits="userSpaceOnUse" x1="10936.6" y1="18677.8" x2="17107.1" y2="17597.6">
   <stop offset="0" style="stop-opacity:1; stop-color:#F59E42"/>
   <stop offset="1" style="stop-opacity:1; stop-color:#F1613C"/>
  </linearGradient>
  <linearGradient id="id2" gradientUnits="userSpaceOnUse" xlink:href="#id1" x1="4659.62" y1="18707.1" x2="10824.8" y2="17627.8">
  </linearGradient>
  <linearGradient id="id3" gradientUnits="userSpaceOnUse" xlink:href="#id0" x1="6116.35" y1="17607.1" x2="8357.68" y2="14509.2">
  </linearGradient>
 </defs>
 <g id="Layer_x0020_1">
  <metadata id="CorelCorpID_0Corel-Layer"/>
  <g id="_1923114119664">
   <path class="fil0" d="M6827 13290c-355,-653 -556,-1400 -556,-2194 0,-2543 2062,-4605 4605,-4605 2543,0 4605,2062 4605,4605 0,823 -217,1596 -596,2264 38,11 75,23 111,37 98,28 191,67 278,117 45,20 90,42 132,67 89,37 172,85 249,142l980 284 372 -898 -1122 -617c69,-249 120,-506 152,-769l1274 -141 0 -972 -1274 -141c-32,-263 -83,-520 -152,-769l1122 -618 -372 -898 -1231 357c-129,-228 -274,-446 -436,-651l802 -1001 -687 -687 -1001 801c-205,-161 -423,-307 -652,-436l358 -1230 -899 -373 -617 1123c-249,-69 -506,-121 -769,-152l-141 -1274 -972 0 -141 1274c-263,31 -520,83 -769,152l-618 -1123 -898 373 358 1230c-229,129 -447,275 -652,436l-1001 -801 -687 687 801 1001c-161,205 -307,423 -436,651l-1230 -357 -372 898 1122 618c-69,249 -120,506 -152,769l-1274 141 0 972 1274 141c32,263 83,520 152,769l-1122 617 372 898 1136 -330c125,-134 281,-241 455,-309 5,-4 10,-7 15,-10 33,-24 68,-47 104,-68zm6047 3908l15 29 899 -372 -67 -231c-183,299 -489,514 -847,574zm-4536 -188l524 217 40 -72 -193 -85 -198 -66 -173 6z"/>
   <polygon class="fil1" points="6118,12202 7855,11043 9371,12058 9371,14984 7851,13986 7581,14007 6129,15086 6109,15087 "/>
   <path class="fil2" d="M9285 12118l0 613 -276 -157 0 -634 276 178zm-1148 2205l-282 -217 0 -3213 1516 1027c-1,261 -106,3243 -99,3243l0 -556 -277 -91 0 531 -163 -139 -313 -268 -190 -163 -192 -154zm215 -2806l0 685 -347 -197 0 -712 347 224zm-11 1854l0 686 -348 -124 0 -713 348 151zm5 -928l0 686 -347 -161 0 -712 347 187zm935 504l0 613 -277 -128 0 -634 277 149zm-5 829l0 614 -277 -99 0 -635 277 120zm-436 -1067l0 647 -309 -142 0 -672 309 167zm-10 1753l0 434 -310 -270 0 -266 310 102zm5 -877l0 647 -310 -110 0 -671 310 134zm10 -1751l0 647 -309 -175 0 -671 309 199z"/>
   <g>
    <path class="fil3" d="M6112 14731l703 -219 157 -52 -861 624 1 -353zm39 -832l1566 -679 0 713 -1566 565 0 -599zm0 -798l1561 -845 0 712 -1561 718 0 -585zm0 -802l1555 -1006 0 712 -1555 892 0 -598zm1704 1806l0 -422 0 -1065 0 -529c-1,-381 5,-781 0,-1196 -599,402 -1198,804 -1797,1206l4 1659 -30 1382 5 134c35,-25 49,-56 83,-81 462,-340 935,-740 1397,-1082 42,-31 68,-49 110,-80 110,-57 153,25 175,30l53 44z"/>
   </g>
   <polygon class="fil1" points="15637,12212 13899,11053 12383,12069 12383,14994 13904,13997 14173,14017 15626,15097 15645,15097 "/>
   <path class="fil3" d="M12469 12129l0 612 277 -156 0 -634 -277 178zm1148 2204l283 -217 -1 -3212 -1516 1026c2,261 107,3244 99,3244l0 -557 278 -91 0 532 162 -139 314 -269 189 -162 192 -155zm-214 -2806l0 685 347 -196 0 -713 -347 224zm11 1854l0 686 348 -124 0 -713 -348 151zm-6 -927l0 685 348 -160 0 -713 -348 188zm-934 503l0 613 276 -127 0 -635 -276 149zm4 830l0 613 277 -98 0 -635 -277 120zm437 -1067l0 647 309 -143 0 -671 -309 167zm9 1752l0 434 310 -269 0 -266 -310 101zm-4 -877l0 648 309 -110 0 -672 -309 134zm-10 -1750l0 647 309 -175 0 -671 -309 199z"/>
   <g>
    <path class="fil4" d="M15643 14741l-704 -218 -156 -53 861 625 -1 -354zm-40 -831l-1566 -680 0 713 1566 566 0 -599zm0 -799l-1560 -845 0 713 1560 718 0 -586zm0 -801l-1554 -1007 0 713 1554 892 0 -598zm-1703 1806l-1 -422 0 -1066 1 -528c0,-381 -6,-782 -1,-1196 599,402 1198,804 1798,1205l-4 1659 29 1382 -4 135c-35,-25 -49,-56 -84,-82 -462,-340 -934,-739 -1397,-1081 -42,-31 -67,-50 -109,-80 -111,-57 -154,25 -175,29l-53 45z"/>
   </g>
   <polygon class="fil1" points="8283,9424 10849,7866 13455,9424 13361,14435 13363,14540 13016,14836 11536,16097 10929,16615 10849,16551 8342,14402 "/>
   <path class="fil3" d="M8392 9611l0 1022 475 -262 0 -1058 -475 298zm1604 -1004l0 1143 597 -328 0 -1188 -597 373zm28 4643l0 1145 599 -145 0 -1191 -599 191zm-9 -1549l0 1144 598 -207 0 -1189 -598 252zm-10 -1548l0 1143 598 -267 0 -1189 -598 313zm-1606 840l0 1023 476 -213 0 -1059 -476 249zm8 1384l0 1023 476 -164 0 -1059 -476 200zm8 1386l0 693 293 259 183 -44 0 -1060 -476 152zm1619 1039l-6 1045 107 92 498 -76 0 -1191 -599 130zm-877 -4205l0 1079 532 -238 0 -1120 -532 279zm17 2924l0 1081 533 -130 0 -1121 -533 170zm-8 -1463l0 1080 532 -184 0 -1120 -532 224zm17 2928l6 142 531 455 -4 -713 -533 116zm-34 -5849l0 1079 531 -292 0 -1119 -531 332zm-905 142l2605 -1712 0 8984 -2605 -2233 0 -5039z"/>
   <path class="fil4" d="M13307 9611l0 1022 -475 -262 0 -1058 475 298zm-1604 -1004l0 1143 -597 -328 0 -1188 597 373zm-28 4643l0 1145 -599 -145 0 -1191 599 191zm9 -1549l0 1144 -598 -207 0 -1189 598 252zm10 -1548l0 1143 -598 -267 0 -1189 598 313zm1605 840l0 1023 -475 -213 0 -1059 475 249zm-7 1384l0 1023 -476 -164 0 -1059 476 200zm-8 1386l0 844 -162 140 -314 -76 0 -1060 476 152zm-1619 1039l0 1146 -600 -85 0 -1191 600 130zm876 -4205l0 1079 -531 -238 0 -1120 531 279zm-16 2924l0 1081 -533 -130 0 -1121 533 170zm8 -1463l0 1080 -532 -184 0 -1120 532 224zm-17 2928l0 274 -534 457 1 -847 533 116zm34 -5849l0 1079 -531 -292 0 -1119 531 332zm-1383 7275l-112 96 0 -221 225 26 -113 99zm2288 -7133l-2606 -1712 0 8984 80 64 2524 -2150 2 -48 0 -5138z"/>
   <path class="fil5" d="M7830 15064l3011 2515 0 -1c30,26 46,62 46,99l0 0 0 3497c0,71 -57,128 -128,128l-1196 0 0 0 52 0c287,-42 644,-46 876,-121 203,-38 302,-88 396,-118l0 -661c-533,155 -198,83 -739,176 -530,91 -1119,200 -1635,181 -731,-27 -2103,-108 -2597,-214l-1319 -306 0 -2562c0,-43 21,-80 52,-103l3011 -2515 0 0c50,-42 123,-39 170,5zm-517 6242l-2588 -4c-70,0 -128,-57 -128,-128l0 -398 857 238 959 182 901 107 -1 3z"/>
   <path class="fil6" d="M14106 15034l3011 2515 1 0c30,25 45,61 45,98l0 0 0 2070 1 62 -136 -26c-231,-18 -249,-44 -426,-55 -397,-23 -551,-73 -1125,-82 -95,-1 -242,-4 -378,-10 -129,-6 -258,-8 -386,-7 -760,3 -1436,106 -1306,106 -354,-23 -2114,639 -2533,699l0 -2757c0,-42 20,-80 52,-103l3011 -2515 0 0c50,-42 123,-39 169,5zm-516 6242l-2588 -4c-71,0 -128,-57 -128,-127l3 -78 1365 -385c1606,-590 2083,-475 2400,-551 867,-143 1587,-116 2017,-17l511 74 -9 851 1 203 -994 8 -2577 23 -1 3z"/>
   <path class="fil7" d="M7742 14604l-3837 3307c-79,68 -201,60 -269,-20 -69,-79 -60,-201 19,-270 91,-78 181,-158 270,-238 154,-136 307,-272 460,-408 412,-366 824,-731 1238,-1094 451,-395 903,-791 1364,-1174 157,-132 317,-264 481,-387 50,-39 102,-77 156,-112 30,-19 76,-48 113,-49l1 0 4 0 6 0c35,1 79,31 107,50 52,35 102,73 152,111 162,125 320,257 477,388 462,387 917,782 1370,1178l1031 904 -3 251 2 276 -3142 -2713z"/>
   <path class="fil8" d="M14019 14574l3836 3307c80,69 201,60 270,-20 69,-79 60,-201 -19,-269 -91,-79 -181,-159 -271,-239 -153,-136 -306,-272 -459,-408 -412,-365 -824,-731 -1238,-1094 -451,-395 -903,-790 -1364,-1174 -158,-131 -317,-263 -481,-387 -50,-38 -103,-77 -156,-111 -30,-20 -76,-48 -113,-49l-1 0 -4 0 -6 0c-35,1 -79,30 -108,49 -51,35 -102,73 -151,112 -162,125 -320,256 -477,388 -462,386 -917,782 -1371,1177l-1030 904 3 251 -2 276 3142 -2713z"/>
   <polygon class="fil0" points="4942,14961 5721,14961 5849,14961 5849,15088 5849,16093 5849,16151 5804,16190 5031,16856 4821,17037 4820,16760 4815,15088 4814,14961 "/>
   <polygon class="fil0" points="16819,14931 16040,14931 15912,14931 15912,15059 15912,16063 15912,16122 15957,16160 16730,16827 16940,17007 16941,16730 16946,15059 16947,14931 "/>
   <polygon class="fil9" points="8830,16603 8830,17839 7940,17839 7940,16608 7940,16608 7929,15880 8832,16603 "/>
   <polygon class="fil9" points="12931,16573 12931,17809 13820,17809 13820,16578 13821,16578 13832,15850 12929,16573 "/>
   <polygon class="fil9" points="6717,16592 6717,17828 7606,17828 7606,16597 7607,16597 7617,15869 6714,16592 "/>
   <polygon class="fil9" points="15044,16562 15044,17798 14155,17798 14155,16568 14154,16568 14144,15840 15047,16562 "/>
   <polygon class="fil9" points="6726,18129 6726,19056 7615,19056 7615,18133 7616,18133 6723,18129 "/>
   <polygon class="fil9" points="15035,18099 15035,19027 14145,19027 14145,18103 14145,18103 15037,18099 "/>
   <polygon class="fil9" points="7935,18128 7935,19055 8824,19055 8824,18132 8825,18132 7932,18128 "/>
   <polygon class="fil9" points="13826,18098 13826,19025 12937,19025 12937,18102 12936,18102 13829,18098 "/>
   <g>
    <path class="fil10" d="M2841 19842l0 0c21,7 43,15 65,23l1 12c-22,-12 -44,-24 -66,-35z"/>
    <path class="fil10" d="M2972 19888l2 23c-22,-11 -44,-23 -67,-34l-1 -12c22,8 44,15 66,23z"/>
    <path class="fil10" d="M3037 19911l4 34c-22,-11 -45,-22 -67,-34l-2 -23c22,8 43,15 65,23z"/>
    <path class="fil10" d="M3103 19934l5 45c-23,-11 -45,-22 -67,-34l-4 -34c22,8 44,15 66,23z"/>
    <path class="fil10" d="M3169 19956l5 56c-22,-11 -44,-22 -66,-33l-5 -45c22,7 44,15 66,22z"/>
    <path class="fil10" d="M3234 19979l7 65c-22,-11 -44,-21 -67,-32l-5 -56c21,8 43,15 65,23z"/>
    <path class="fil10" d="M3300 20001l8 75c-23,-11 -45,-21 -67,-32l-7 -65c22,7 44,15 66,22z"/>
    <path class="fil10" d="M3365 20023l9 84c-22,-10 -44,-21 -66,-31l-8 -75c22,7 43,15 65,22z"/>
    <path class="fil10" d="M3431 20045l10 93c-23,-10 -45,-21 -67,-31l-9 -84c22,7 44,14 66,22z"/>
    <path class="fil10" d="M3496 20066l11 102c-22,-10 -44,-20 -66,-30l-10 -93c22,7 43,14 65,21z"/>
    <path class="fil10" d="M3562 20087l11 111c-22,-10 -44,-20 -66,-30l-11 -102c22,7 44,14 66,21z"/>
    <path class="fil10" d="M3627 20108l13 119c-23,-10 -45,-19 -67,-29l-11 -111c22,7 43,14 65,21z"/>
    <path class="fil10" d="M3693 20129l13 127c-22,-10 -44,-19 -66,-29l-13 -119c22,7 44,14 66,21z"/>
    <path class="fil10" d="M3758 20150l14 134c-22,-9 -44,-19 -66,-28l-13 -127c21,7 43,14 65,21z"/>
    <path class="fil10" d="M3823 20170l15 142c-22,-9 -44,-19 -66,-28l-14 -134c22,6 44,13 65,20z"/>
    <path class="fil10" d="M3889 20190l15 149c-22,-9 -44,-18 -66,-27l-15 -142c22,7 44,13 66,20z"/>
    <path class="fil10" d="M3954 20210l16 156c-22,-9 -44,-18 -66,-27l-15 -149c22,6 43,13 65,20z"/>
    <path class="fil10" d="M4019 20229l17 164c-22,-9 -44,-18 -66,-27l-16 -156c22,6 44,13 65,19z"/>
    <path class="fil10" d="M4085 20248l17 171c-22,-9 -44,-17 -66,-26l-17 -164c22,7 44,13 66,19z"/>
    <path class="fil10" d="M4150 20267l18 178c-22,-9 -44,-17 -66,-26l-17 -171c21,7 43,13 65,19z"/>
    <path class="fil10" d="M4215 20286l19 184c-22,-8 -44,-17 -66,-25l-18 -178c22,6 43,13 65,19z"/>
    <path class="fil10" d="M4280 20304l20 191c-22,-8 -44,-17 -66,-25l-19 -184c22,6 44,12 65,18z"/>
    <path class="fil10" d="M4345 20322l21 197c-22,-8 -44,-16 -66,-24l-20 -191c22,6 44,12 65,18z"/>
    <path class="fil10" d="M4410 20340l22 204c-22,-8 -44,-16 -66,-25l-21 -197c22,6 44,12 65,18z"/>
    <path class="fil10" d="M4476 20357l21 210c-22,-8 -43,-15 -65,-23l-22 -204c22,6 44,12 66,17z"/>
    <path class="fil10" d="M4541 20375l22 216c-22,-8 -44,-16 -66,-24l-21 -210c21,6 43,12 65,18z"/>
    <path class="fil10" d="M4606 20391l23 223c-22,-8 -44,-15 -66,-23l-22 -216c21,5 43,11 65,16z"/>
    <path class="fil10" d="M4671 20408l23 229c-22,-8 -43,-15 -65,-23l-23 -223c21,6 43,12 65,17z"/>
    <path class="fil10" d="M4736 20424l24 235 -1 0c-21,-8 -43,-15 -65,-22l-23 -229c21,5 43,11 65,16z"/>
    <path class="fil10" d="M4800 20440l25 240c-21,-7 -43,-14 -65,-21l-24 -235c21,6 43,11 64,16z"/>
    <path class="fil10" d="M4865 20456l26 245c-22,-7 -44,-14 -66,-21l-25 -240 21 5c15,4 29,7 44,11z"/>
    <path class="fil10" d="M4930 20471l26 251c-22,-7 -43,-14 -65,-21l-26 -245c22,5 44,10 65,15z"/>
    <path class="fil10" d="M4995 20486l27 256c-22,-7 -44,-13 -66,-20l-26 -251c22,5 43,10 65,15z"/>
    <path class="fil10" d="M5060 20501l27 261c-22,-7 -44,-13 -65,-20l-27 -256c22,5 43,10 65,15z"/>
    <path class="fil10" d="M5125 20515l27 266c-22,-6 -43,-13 -65,-19l-27 -261c21,4 43,9 65,14z"/>
    <path class="fil10" d="M5189 20529l28 271c-21,-6 -43,-13 -65,-19l-27 -266c21,5 43,9 64,14z"/>
    <path class="fil10" d="M5254 20543l29 276c-22,-7 -44,-13 -66,-19l-28 -271c22,5 43,9 65,14z"/>
    <path class="fil10" d="M5319 20557l29 280c-22,-6 -44,-12 -65,-18l-29 -276c22,5 43,9 65,14z"/>
    <path class="fil10" d="M5383 20570l30 285c-22,-6 -44,-12 -65,-18l-29 -280c21,4 43,8 64,13z"/>
    <path class="fil10" d="M5448 20583l30 289c-22,-6 -43,-12 -65,-17l-30 -285c22,4 43,9 65,13z"/>
    <path class="fil10" d="M5513 20596l30 293c-22,-6 -43,-11 -65,-17l-30 -289c21,4 43,8 65,13z"/>
    <path class="fil10" d="M5577 20608l31 298c-22,-6 -43,-11 -65,-17l-30 -293c21,4 43,8 64,12z"/>
    <path class="fil10" d="M5642 20620l31 302c-22,-5 -43,-11 -65,-16l-31 -298c22,4 43,8 65,12z"/>
    <path class="fil10" d="M5706 20632l32 306c-22,-5 -43,-11 -65,-16l-31 -302c21,4 43,8 64,12z"/>
    <path class="fil10" d="M5771 20644l32 309c-22,-5 -43,-10 -65,-15l-32 -306c22,4 43,8 65,12z"/>
    <path class="fil10" d="M5835 20655l33 314c-22,-5 -44,-10 -65,-16l-32 -309c21,3 43,7 64,11z"/>
    <path class="fil10" d="M5899 20666l33 317c-21,-4 -43,-9 -64,-14l-33 -314c21,4 43,7 64,11z"/>
    <path class="fil10" d="M5964 20676l33 322c-21,-5 -43,-10 -65,-15l-33 -317c22,3 43,7 65,10z"/>
    <path class="fil10" d="M6028 20687l34 325c-22,-5 -43,-9 -65,-14l-33 -322c21,4 43,7 64,11z"/>
    <path class="fil10" d="M6092 20697l35 329c-22,-5 -44,-9 -65,-14l-34 -325c22,3 43,7 64,10z"/>
    <path class="fil10" d="M6157 20707l34 332c-21,-4 -43,-9 -64,-13l-35 -329c22,3 43,7 65,10z"/>
    <path class="fil10" d="M6221 20716l35 336c-22,-4 -43,-9 -65,-13l-34 -332c21,3 43,6 64,9z"/>
    <path class="fil10" d="M6285 20726l35 339c-21,-4 -43,-9 -64,-13l-35 -336c21,4 43,7 64,10z"/>
    <path class="fil10" d="M6349 20735l36 342c-22,-4 -43,-8 -65,-12l-35 -339c22,3 43,6 64,9z"/>
    <path class="fil10" d="M6414 20743l36 346c-22,-4 -44,-8 -65,-12l-36 -342c22,3 43,6 65,8z"/>
    <path class="fil10 str0" d="M6478 20752l36 349c-22,-4 -43,-8 -64,-12l-36 -346c21,3 42,6 64,9z"/>
    <path class="fil10" d="M6542 20760l36 352c-21,-4 -43,-8 -64,-11l-36 -349c21,2 42,5 64,8z"/>
    <path class="fil10" d="M6606 20768l37 355c-22,-4 -43,-8 -65,-11l-36 -352c21,2 43,5 64,8z"/>
    <path class="fil10" d="M6670 20775l37 358c-21,-3 -43,-7 -64,-10l-37 -355c21,2 43,5 64,7z"/>
    <path class="fil10" d="M6734 20782l37 361c-21,-3 -42,-6 -64,-10l-37 -358c21,3 43,5 64,7z"/>
    <path class="fil10" d="M6798 20789l38 364c-12,-2 -24,-3 -36,-5 -10,-2 -19,-3 -29,-5l-37 -361c21,3 43,5 64,7z"/>
    <path class="fil10" d="M6862 20796l38 366c-21,-3 -43,-6 -64,-9l-38 -364c15,2 31,3 46,5l18 2z"/>
    <path class="fil10" d="M6926 20802l38 368c-21,-2 -43,-5 -64,-8l-38 -366c21,2 43,4 64,6z"/>
    <path class="fil10" d="M6990 20808l38 370c-21,-2 -43,-5 -64,-8l-38 -368c21,2 42,4 64,6z"/>
    <path class="fil10" d="M7054 20813l38 374 -31 -5c-11,-1 -22,-2 -33,-4l-38 -370c21,2 42,3 64,5z"/>
    <path class="fil10" d="M7117 20818l39 377 -64 -8 -38 -374c21,2 42,4 63,5z"/>
    <path class="fil10" d="M7181 20823l40 380c-10,-1 -20,-2 -30,-4l-35 -4 -39 -377c22,2 43,4 64,5z"/>
    <path class="fil10" d="M7245 20828l40 383c-22,-3 -43,-5 -64,-8l-40 -380c21,2 43,3 64,5z"/>
    <path class="fil10" d="M7309 20832l39 384 -25 -2c-13,-1 -26,-2 -38,-3l-40 -383c21,1 42,3 64,4z"/>
    <path class="fil10" d="M7372 20836l40 386c-21,-2 -42,-4 -64,-6l-39 -384c21,1 42,3 63,4z"/>
    <path class="fil10" d="M7436 20839l40 389 -64 -6 -40 -386c21,1 43,2 64,3z"/>
    <path class="fil10" d="M7499 20843l41 391c-21,-2 -43,-4 -64,-6l-40 -389c21,2 42,3 63,4z"/>
    <path class="fil10" d="M7563 20846l41 393c-21,-1 -43,-3 -64,-5l-41 -391c22,1 43,2 64,3z"/>
    <path class="fil10" d="M7627 20848l41 396c-22,-1 -43,-3 -64,-5l-41 -393c21,1 42,1 64,2z"/>
    <path class="fil10" d="M7690 20851l41 398c-21,-2 -42,-3 -63,-5l-41 -396c21,1 42,2 63,3z"/>
    <path class="fil10" d="M7754 20853l41 399c-21,-1 -42,-2 -64,-3l-41 -398c21,0 42,1 64,2z"/>
    <path class="fil10" d="M7817 20854l42 401 -10 0c-18,-1 -36,-2 -54,-3l-41 -399c21,0 42,1 63,1z"/>
    <path class="fil10" d="M7880 20856l42 403 -63 -4 -42 -401c21,1 42,1 63,2z"/>
    <path class="fil10" d="M7944 20857l42 405 -64 -3 -42 -403c21,0 43,0 64,1z"/>
    <path class="fil10" d="M8007 20857l42 408 -63 -3 -42 -405c21,0 42,0 63,0z"/>
    <path class="fil10" d="M8070 20858l43 411 -1 0 -63 -4 -42 -408c21,0 42,1 63,1z"/>
    <path class="fil10" d="M8134 20858l42 412 -63 -1 -43 -411c21,0 43,0 64,0z"/>
    <path class="fil10" d="M8197 20857l43 413 -64 0 -42 -412c21,0 42,0 63,-1z"/>
    <path class="fil10" d="M8260 20857l43 414 -63 -1 -43 -413c21,0 42,0 63,0z"/>
    <path class="fil10" d="M8323 20856l43 416 -63 -1 -43 -414c21,0 42,-1 63,-1z"/>
    <path class="fil10" d="M8386 20855l44 418 -53 -1 -11 0 -43 -416c21,0 42,-1 63,-1z"/>
    <path class="fil10" d="M8450 20853l43 420 -63 0 -44 -418c21,-1 42,-1 64,-2z"/>
    <path class="fil10" d="M8513 20851l43 422c-15,1 -31,1 -47,1l-16 -1 -43 -420c21,0 42,-1 63,-2z"/>
    <path class="fil10" d="M8576 20849l43 422c-21,1 -42,2 -63,2l-43 -422c21,0 42,-1 63,-2z"/>
    <path class="fil10" d="M8639 20847l44 423 -42 1c-7,0 -14,0 -22,0l-43 -422c21,0 42,-1 63,-2z"/>
    <path class="fil10" d="M8702 20844l44 424 -63 2 -44 -423c21,-1 42,-2 63,-3z"/>
    <path class="fil10" d="M8765 20841l44 425 -63 2 -44 -424c21,-1 42,-2 63,-3z"/>
    <path class="fil10" d="M8827 20837l45 428 -63 1 -44 -425c21,-1 42,-2 62,-4z"/>
    <path class="fil10" d="M8890 20834l45 429c-10,1 -19,1 -29,1l-34 1 -45 -428c19,-1 37,-2 56,-3l7 0z"/>
    <path class="fil10" d="M8953 20830l45 430c-21,1 -42,2 -63,3l-45 -429c21,-1 42,-3 63,-4z"/>
    <path class="fil10" d="M9016 20824l45 432 -23 1c-13,1 -27,2 -40,3l-45 -430c21,-2 42,-4 63,-6z"/>
    <path class="fil10" d="M9079 20818l45 433 -63 5 -45 -432c21,-2 42,-4 63,-6z"/>
    <path class="fil10" d="M9141 20813l45 434 -16 1 -46 3 -45 -433c19,-2 38,-3 57,-5l5 0z"/>
    <polygon class="fil10" points="9204,20807 9249,21243 9186,21247 9141,20813 "/>
    <polygon class="fil10" points="9267,20802 9312,21238 9302,21239 9249,21243 9204,20807 9263,20802 "/>
    <path class="fil10" d="M9329 20797l46 437c-21,1 -42,3 -63,4l-45 -436c21,-2 42,-3 62,-5z"/>
    <path class="fil10" d="M9392 20789l45 438 -2 1c-20,2 -40,4 -60,6l-46 -437c20,-2 40,-5 60,-8l3 0z"/>
    <polygon class="fil10" points="9454,20781 9500,21220 9437,21227 9392,20789 "/>
    <polygon class="fil10" points="9517,20773 9562,21213 9500,21220 9454,20781 "/>
    <polygon class="fil10" points="9579,20765 9625,21206 9562,21213 9517,20773 "/>
    <polygon class="fil10" points="9642,20757 9687,21199 9625,21206 9579,20765 9638,20757 "/>
    <polygon class="fil10" points="9704,20746 9750,21190 9701,21197 9687,21199 9642,20757 "/>
    <polygon class="fil10" points="9766,20735 9812,21180 9750,21190 9704,20746 "/>
    <polygon class="fil10" points="9828,20725 9874,21170 9812,21180 9766,20735 "/>
    <polygon class="fil10" points="9890,20714 9937,21161 9874,21170 9828,20725 9887,20715 "/>
    <path class="fil10" d="M9952 20702l47 448c-12,2 -23,4 -34,6l-28 5 -47 -447c21,-4 42,-8 62,-12z"/>
    <path class="fil10" d="M10014 20690l47 449c-21,4 -42,8 -62,11l-47 -448c21,-4 42,-8 62,-12z"/>
    <path class="fil10" d="M10076 20678l47 449c-21,4 -41,8 -62,12l-47 -449c21,-4 42,-8 62,-12z"/>
    <path class="fil10" d="M10138 20665l47 450c-21,4 -41,8 -62,12l-47 -449c21,-5 41,-9 62,-13z"/>
    <path class="fil10" d="M10200 20651l47 451c-21,5 -41,9 -62,13l-47 -450c21,-5 41,-9 62,-14z"/>
    <path class="fil10" d="M10262 20638l47 451c-21,5 -41,9 -62,13l-47 -451c21,-4 41,-9 62,-13z"/>
    <path class="fil10" d="M10324 20624l47 452c-21,5 -42,9 -62,13l-47 -451c20,-5 41,-10 62,-14z"/>
    <path class="fil10" d="M10385 20609l47 453c-20,5 -41,10 -61,14l-47 -452c20,-5 41,-10 61,-15z"/>
    <path class="fil10" d="M10447 20595l47 453c-20,5 -41,10 -62,14l-47 -453c21,-5 42,-10 62,-14z"/>
    <path class="fil10" d="M10509 20579l47 455c-21,5 -41,9 -62,14l-47 -453c21,-5 41,-10 62,-16z"/>
    <path class="fil10" d="M10571 20564l47 455c-21,5 -41,10 -62,15l-47 -455c20,-5 41,-10 62,-15z"/>
    <path class="fil10" d="M10632 20548l47 456c-20,5 -41,10 -61,15l-47 -455c20,-5 41,-10 61,-16z"/>
    <path class="fil10" d="M10694 20532l47 456c-20,6 -41,11 -62,16l-47 -456c21,-5 41,-10 62,-16z"/>
    <path class="fil10" d="M10755 20516l48 457c-21,5 -41,10 -62,15l-47 -456c20,-5 41,-10 61,-16z"/>
    <path class="fil10" d="M10817 20500l47 457c-20,5 -41,11 -61,16l-48 -457c21,-5 41,-11 62,-16z"/>
    <path class="fil10" d="M10878 20483l48 458c-21,5 -41,11 -62,16l-47 -457c20,-6 40,-11 60,-17l1 0z"/>
    <path class="fil10" d="M10940 20466l48 458c-21,6 -41,11 -62,17l-48 -458c21,-6 41,-11 62,-17z"/>
    <path class="fil10" d="M11001 20449l48 459c-17,4 -35,9 -52,14l-9 2 -48 -458c20,-5 41,-11 61,-17z"/>
    <path class="fil10" d="M11063 20432l48 459c-21,5 -41,11 -62,17l-48 -459c21,-5 41,-11 62,-17z"/>
    <path class="fil10" d="M11124 20415l48 458c-20,6 -41,12 -61,18l-48 -459c20,-5 41,-11 61,-17z"/>
    <path class="fil10" d="M11186 20397l47 459c-20,6 -40,11 -61,17l-48 -458c21,-6 41,-12 62,-18z"/>
    <path class="fil10" d="M11247 20380l48 458c-21,6 -41,12 -62,18l-47 -459c20,-5 41,-11 61,-17z"/>
    <path class="fil10" d="M11309 20362l47 458c-20,6 -41,12 -61,18l-48 -458c21,-6 41,-12 62,-18z"/>
    <path class="fil10" d="M11370 20344l48 458c-21,6 -41,12 -62,18l-47 -458c20,-6 41,-12 61,-18z"/>
    <path class="fil10" d="M11432 20326l47 458c-20,6 -41,12 -61,18l-48 -458c21,-6 41,-12 62,-18z"/>
    <path class="fil10" d="M11493 20308l47 457c-20,7 -40,13 -61,19l-47 -458 61 -18z"/>
    <path class="fil10" d="M11554 20290l48 457c-21,6 -41,12 -62,18l-47 -457 61 -18z"/>
    <polygon class="fil10" points="11616,20272 11663,20729 11602,20747 11554,20290 "/>
    <polygon class="fil10" points="11677,20254 11724,20710 11663,20729 11616,20272 "/>
    <polygon class="fil10" points="11738,20236 11786,20692 11724,20710 11677,20254 "/>
    <polygon class="fil10" points="11800,20218 11847,20673 11786,20692 11738,20236 "/>
    <polygon class="fil10" points="11861,20199 11908,20655 11847,20673 11800,20218 "/>
    <polygon class="fil10" points="11923,20182 11970,20636 11908,20655 11861,20199 11870,20197 "/>
    <polygon class="fil10" points="11984,20164 12031,20617 11998,20627 11970,20636 11923,20182 "/>
    <path class="fil10" d="M12046 20146l46 453c-20,6 -40,12 -61,18l-47 -453 62 -18z"/>
    <path class="fil10" d="M12107 20129l47 451c-21,6 -41,12 -62,19l-46 -453c20,-5 40,-11 61,-17z"/>
    <path class="fil10" d="M12168 20111l47 450c-20,6 -41,13 -61,19l-47 -451c20,-6 41,-12 61,-18z"/>
    <path class="fil10" d="M12230 20094l46 449c-20,6 -40,12 -61,18l-47 -450c21,-5 41,-11 62,-17z"/>
    <path class="fil10" d="M12291 20077l47 448c-21,6 -41,12 -62,18l-46 -449c20,-6 41,-11 61,-17z"/>
    <path class="fil10" d="M12353 20060l46 446c-20,6 -41,12 -61,19l-47 -448c21,-6 41,-12 62,-17z"/>
    <path class="fil10" d="M12414 20043l47 445c-21,6 -41,12 -62,18l-46 -446c20,-6 41,-12 61,-17z"/>
    <path class="fil10" d="M12476 20026l46 444c-20,6 -41,12 -61,18l-47 -445c21,-6 41,-11 62,-17z"/>
    <path class="fil10" d="M12537 20010l46 442c-20,6 -41,12 -61,18l-46 -444c20,-5 41,-11 61,-16z"/>
    <path class="fil10" d="M12599 19993l46 442c-21,6 -41,12 -62,17l-46 -442c21,-6 41,-11 62,-17z"/>
    <path class="fil10" d="M12661 19977l45 440c-20,6 -41,12 -61,18l-46 -442c21,-5 41,-11 62,-16z"/>
    <path class="fil10" d="M12722 19961l46 439c-21,6 -41,12 -62,17l-45 -440c20,-5 41,-11 61,-16z"/>
    <path class="fil10" d="M12784 19946l45 437c-20,6 -41,11 -61,17l-46 -439c21,-5 41,-10 62,-15z"/>
    <path class="fil10" d="M12846 19930l45 436c-21,6 -41,11 -62,17l-45 -437c20,-5 41,-11 62,-16z"/>
    <path class="fil10" d="M12907 19916l45 433c-20,6 -41,12 -61,17l-45 -436c11,-2 23,-5 35,-8l26 -6z"/>
    <path class="fil10" d="M12969 19901l45 432c-9,2 -19,5 -28,7l-34 9 -45 -433c21,-5 41,-10 62,-15z"/>
    <path class="fil10" d="M13031 19887l44 430c-20,5 -41,11 -61,16l-45 -432c21,-4 41,-9 62,-14z"/>
    <path class="fil10" d="M13093 19874l44 427c-20,6 -41,11 -62,16l-44 -430c20,-4 41,-9 62,-13z"/>
    <path class="fil10" d="M13155 19860l44 426c-21,5 -41,10 -62,15l-44 -427c20,-5 41,-9 62,-14z"/>
    <path class="fil10" d="M13216 19847l45 424c-21,5 -42,10 -62,15l-44 -426c20,-4 41,-9 61,-13z"/>
    <path class="fil10" d="M13278 19835l44 422c-20,4 -41,9 -61,14l-45 -424c21,-4 42,-8 62,-12z"/>
    <path class="fil10" d="M13340 19822l44 420c-21,5 -41,10 -62,15l-44 -422c21,-5 42,-9 62,-13z"/>
    <path class="fil10" d="M13402 19810l44 419c-21,4 -41,9 -62,13l-44 -420c21,-4 42,-8 62,-12z"/>
    <path class="fil10" d="M13465 19799l43 416c-21,5 -41,9 -62,14l-44 -419c21,-3 42,-7 63,-11z"/>
    <path class="fil10" d="M13527 19788l43 414c-21,5 -42,9 -62,13l-43 -416c20,-4 41,-7 62,-11z"/>
    <path class="fil10" d="M13589 19778l43 412c-21,4 -42,8 -62,12l-43 -414c20,-3 41,-7 62,-10z"/>
    <path class="fil10" d="M13651 19768l43 410c-21,3 -42,8 -62,12l-43 -412c21,-4 41,-7 62,-10z"/>
    <path class="fil10" d="M13713 19758l43 408c-21,4 -42,8 -62,12l-43 -410c21,-4 42,-7 62,-10z"/>
    <path class="fil10" d="M13776 19749l42 405c-21,4 -42,8 -62,12l-43 -408c21,-3 42,-6 63,-9z"/>
    <path class="fil10" d="M13838 19741l42 403c-21,3 -42,7 -62,10l-42 -405c20,-3 41,-6 62,-8z"/>
    <path class="fil10" d="M13901 19733l41 400c-21,4 -41,7 -62,11l-42 -403c21,-3 42,-6 63,-8z"/>
    <path class="fil10" d="M13963 19725l41 398c-8,1 -17,3 -25,4 -13,2 -25,4 -37,6l-41 -400c7,-1 15,-2 23,-3 13,-2 26,-3 39,-5z"/>
    <path class="fil10" d="M14025 19718l42 395c-21,3 -42,7 -63,10l-41 -398c21,-3 42,-5 62,-7z"/>
    <path class="fil10" d="M14088 19711l41 393c-21,3 -42,6 -62,9l-42 -395c21,-3 42,-5 63,-7z"/>
    <path class="fil10" d="M14151 19705l40 391c-21,3 -41,5 -62,8l-41 -393c21,-2 42,-4 63,-6z"/>
    <path class="fil10" d="M14213 19700l41 388c-21,3 -42,5 -63,8l-40 -391c21,-2 42,-4 62,-5z"/>
    <path class="fil10" d="M14276 19694l40 387c-21,2 -41,5 -62,7l-41 -388c21,-2 42,-4 63,-6z"/>
    <path class="fil10" d="M14339 19689l40 384c-21,3 -42,5 -63,8l-40 -387c21,-1 42,-3 63,-5z"/>
    <path class="fil10" d="M14402 19685l39 381 -62 7 -40 -384c21,-1 42,-3 63,-4z"/>
    <polygon class="fil10" points="14464,19680 14504,20059 14484,20061 14441,20066 14402,19685 14451,19681 "/>
    <polygon class="fil10" points="14527,19677 14566,20053 14504,20059 14464,19680 "/>
    <polygon class="fil10" points="14590,19674 14629,20047 14566,20053 14527,19677 "/>
    <polygon class="fil10" points="14653,19670 14692,20041 14629,20047 14590,19674 "/>
    <polygon class="fil10" points="14716,19667 14754,20034 14738,20036 14692,20041 14653,19670 14714,19667 "/>
    <path class="fil10" d="M14779 19664l38 365c-21,2 -42,4 -63,5l-38 -367c21,-1 42,-2 63,-3z"/>
    <path class="fil10" d="M14842 19662l38 362c-21,2 -42,3 -63,5l-38 -365c21,0 42,-1 63,-2z"/>
    <path class="fil10" d="M14905 19661l38 359c-21,1 -42,3 -63,4l-38 -362c21,0 42,-1 63,-1z"/>
    <path class="fil10" d="M14968 19659l37 356 -12 1c-17,1 -33,3 -50,4l-38 -359c21,-1 42,-1 63,-2z"/>
    <path class="fil10" d="M15031 19658l37 353c-21,1 -42,3 -63,4l-37 -356 9 0c18,-1 36,-1 54,-1z"/>
    <path class="fil10" d="M15095 19657l36 350c-21,1 -42,2 -63,4l-37 -353c22,-1 43,-1 64,-1z"/>
    <path class="fil10" d="M15158 19656l36 347c-21,1 -42,2 -63,4l-36 -350c21,0 42,-1 63,-1z"/>
    <path class="fil10" d="M15221 19656l36 343c-21,1 -42,3 -63,4l-36 -347c21,0 42,0 63,0z"/>
    <path class="fil10" d="M15284 19656l36 340c-21,1 -42,2 -63,3l-36 -343c21,0 42,0 63,0z"/>
    <path class="fil10" d="M15348 19656l35 337c-21,1 -42,2 -63,3l-36 -340c21,0 43,0 64,0z"/>
    <path class="fil10" d="M15411 19657l35 334c-21,0 -42,1 -63,2l-35 -337c21,1 42,1 63,1z"/>
    <path class="fil10" d="M15474 19658l35 330c-21,1 -42,2 -63,3l-35 -334c21,0 42,1 63,1z"/>
    <path class="fil10" d="M15538 19659l34 327c-21,1 -42,1 -63,2l-35 -330c22,1 43,1 64,1z"/>
    <path class="fil10" d="M15601 19661l34 323c-21,1 -42,1 -63,2l-34 -327c21,1 42,2 63,2z"/>
    <path class="fil10" d="M15665 19663l33 320c-21,0 -42,1 -63,1l-34 -323c21,1 43,1 64,2z"/>
    <path class="fil10" d="M15728 19666l33 316c-21,0 -42,0 -63,1l-33 -320c21,1 42,2 63,3z"/>
    <path class="fil10" d="M15792 19668l32 313c-21,0 -42,0 -63,1l-33 -316c21,0 43,1 64,2z"/>
    <path class="fil10" d="M15855 19671l32 309c-21,0 -42,1 -63,1l-32 -313c21,1 42,2 63,3z"/>
    <path class="fil10" d="M15919 19675l32 305c-21,0 -42,0 -64,0l-32 -309c22,1 43,2 64,4z"/>
    <path class="fil10" d="M15983 19678l31 302c-21,0 -42,0 -63,0l-32 -305c21,1 42,2 64,3z"/>
    <path class="fil10" d="M16046 19682l31 298c-21,0 -42,0 -63,0l-31 -302c15,1 30,2 45,3l18 1z"/>
    <path class="fil10" d="M16110 19687l31 294c-22,0 -43,-1 -64,-1l-31 -298c22,2 43,3 64,5z"/>
    <path class="fil10" d="M16174 19692l30 290c-21,-1 -42,-1 -63,-1l-31 -294c21,2 43,3 64,5z"/>
    <path class="fil10" d="M16238 19697l29 286c-21,0 -42,-1 -63,-1l-30 -290c21,2 42,3 64,5z"/>
    <path class="fil10" d="M16302 19703l29 281c-21,0 -43,-1 -64,-1l-29 -286c21,2 42,4 64,6z"/>
    <path class="fil10" d="M16365 19709l29 277c-21,0 -42,-1 -63,-2l-29 -281c21,2 42,4 63,6z"/>
    <path class="fil10" d="M16429 19715l29 273c-21,0 -43,-1 -64,-2l-29 -277c22,2 43,4 64,6z"/>
    <path class="fil10" d="M16493 19722l28 269c-21,-1 -42,-2 -63,-3l-29 -273c22,3 43,5 64,7z"/>
    <path class="fil10" d="M16557 19729l28 264c-21,-1 -43,-1 -64,-2l-28 -269c22,3 43,5 64,7z"/>
    <path class="fil10" d="M16621 19737l27 259c-21,-1 -42,-2 -63,-3l-28 -264c22,3 43,5 64,8z"/>
    <path class="fil10" d="M16685 19745l27 255c-21,-1 -42,-3 -64,-4l-27 -259c22,2 43,5 64,8z"/>
    <path class="fil10" d="M16750 19753l26 250c-22,-1 -43,-2 -64,-3l-27 -255c22,2 43,5 65,8z"/>
    <path class="fil10" d="M16814 19762l25 245c-21,-1 -42,-3 -63,-4l-26 -250c21,3 42,6 64,9z"/>
    <path class="fil10" d="M16878 19771l25 240c-21,-1 -43,-3 -64,-4l-25 -245c21,3 43,6 64,9z"/>
    <path class="fil10" d="M16942 19780l25 236c-22,-2 -43,-3 -64,-5l-25 -240c21,3 43,6 64,9z"/>
    <path class="fil10" d="M17006 19790l24 230c-21,-1 -42,-3 -63,-4l-25 -236c22,3 43,6 64,10z"/>
    <path class="fil10" d="M17071 19800l23 226c-21,-2 -42,-4 -64,-6l-24 -230c22,3 43,6 65,10z"/>
    <path class="fil10" d="M17135 19811l23 220c-21,-2 -43,-4 -64,-5l-23 -226 0 0c22,3 43,7 64,11z"/>
    <path class="fil10" d="M17200 19822l22 215c-21,-2 -43,-4 -64,-6l-23 -220c22,3 43,7 65,11z"/>
    <path class="fil10" d="M17264 19833l22 210c-22,-2 -43,-4 -64,-6l-22 -215c21,3 43,7 64,11z"/>
    <path class="fil10" d="M17328 19845l22 204c-22,-2 -43,-4 -64,-6l-22 -210c22,4 43,8 64,12z"/>
    <path class="fil10" d="M17393 19857l21 198c-22,-2 -43,-4 -64,-6l-22 -204c22,4 44,8 65,12z"/>
    <path class="fil10" d="M17458 19869l20 193c-22,-2 -43,-4 -64,-7l-21 -198c22,4 43,8 65,12z"/>
    <path class="fil10" d="M17522 19882l20 188c-22,-3 -43,-5 -64,-8l-20 -193c21,5 43,9 64,13z"/>
    <path class="fil10" d="M17587 19896l19 181c-22,-3 -43,-5 -64,-7l-20 -188c22,5 43,9 65,14z"/>
    <path class="fil10" d="M17652 19910l18 175c-22,-3 -43,-5 -64,-8l-19 -181c21,4 43,9 65,14z"/>
    <path class="fil10" d="M17716 19924l18 169c-22,-3 -43,-5 -64,-8l-18 -175c21,4 43,9 64,14z"/>
    <path class="fil10" d="M17781 19938l17 163c-21,-2 -43,-5 -64,-8l-18 -169c22,5 43,9 65,14z"/>
    <path class="fil10" d="M17846 19954l16 156c-21,-3 -43,-6 -64,-9l-17 -163c22,5 43,11 65,16z"/>
    <path class="fil10" d="M17911 19969l15 150c-21,-3 -42,-6 -64,-9l-16 -156c22,5 43,10 65,15z"/>
    <path class="fil10" d="M17976 19986l15 143c-22,-4 -43,-7 -65,-10l-15 -150c21,6 43,11 65,17z"/>
    <path class="fil10" d="M18041 20002l14 136c-22,-3 -43,-6 -64,-9l-15 -143c21,5 43,11 65,16z"/>
    <path class="fil10" d="M18106 20020l13 128c-21,-3 -43,-6 -64,-10l-14 -136c18,5 36,10 54,15l11 3z"/>
    <path class="fil10" d="M18171 20037l13 122c-22,-4 -43,-7 -65,-11l-13 -128c22,5 43,11 65,17z"/>
    <path class="fil10" d="M18236 20055l12 114c-22,-3 -43,-7 -64,-10l-13 -122c22,6 43,12 65,18z"/>
    <path class="fil10" d="M18301 20074l11 106c-21,-4 -43,-7 -64,-11l-12 -114c22,6 44,12 65,19z"/>
    <path class="fil10" d="M18366 20093l11 98c-22,-3 -43,-7 -65,-11l-11 -106 46 13 19 6z"/>
    <path class="fil10" d="M18432 20112l9 91c-21,-4 -43,-8 -64,-12l-11 -98c22,6 44,12 66,19z"/>
    <path class="fil10" d="M18497 20131l9 84c-22,-4 -43,-8 -65,-12l-9 -91c22,6 43,13 65,19z"/>
    <path class="fil10" d="M18562 20152l8 75c-21,-4 -43,-8 -64,-12l-9 -84c22,7 44,14 65,21z"/>
    <path class="fil10" d="M18628 20173l7 67c-22,-5 -43,-9 -65,-13l-8 -75c12,4 23,7 34,11 11,3 21,7 32,10z"/>
    <path class="fil10" d="M18693 20195l6 57c-21,-4 -43,-8 -64,-12l-7 -67c22,7 44,15 65,22z"/>
    <path class="fil10" d="M18759 20217l5 49c-21,-5 -43,-9 -65,-14l-6 -57c22,7 44,15 66,22z"/>
    <path class="fil10" d="M18825 20240l4 39c-22,-4 -43,-9 -65,-13l-5 -49c22,8 44,15 66,23z"/>
    <path class="fil10" d="M18890 20263l3 30c-21,-5 -43,-9 -64,-14l-4 -39c22,8 43,16 65,23z"/>
    <path class="fil10" d="M18956 20287l2 20c-21,-5 -43,-9 -65,-14l-3 -30c22,8 44,16 66,24z"/>
    <path class="fil10" d="M19022 20312l1 10c-22,-5 -43,-10 -65,-15l-2 -20c22,8 44,16 66,25z"/>
    <path class="fil10" d="M19088 20336l0 0c-22,-5 -43,-10 -65,-14l-1 -10c22,8 44,16 66,24z"/>
   </g>
  </g>
 </g>
</svg>
