<svg width="93" height="91" viewBox="0 0 93 91" fill="none" xmlns="http://www.w3.org/2000/svg">
<g filter="url(#filter0_d_55_699)">
<rect x="12" y="12" width="69" height="67" rx="33.5" fill="white"/>
</g>
<path d="M44.8751 48.75H41.6251C41.6251 40.6738 48.1739 34.125 56.2501 34.125V37.375C49.9614 37.375 44.8751 42.4613 44.8751 48.75ZM56.2501 43.875V40.625C51.7651 40.625 48.1251 44.265 48.1251 48.75H51.3751C51.3751 46.0525 53.5526 43.875 56.2501 43.875ZM38.3751 32.5C38.3751 30.6963 36.9289 29.25 35.1251 29.25C33.3214 29.25 31.8751 30.6963 31.8751 32.5C31.8751 34.3038 33.3214 35.75 35.1251 35.75C36.9289 35.75 38.3751 34.3038 38.3751 32.5ZM45.6064 33.3125H42.3564C41.9664 35.62 39.9839 37.375 37.5626 37.375H32.6876C31.3389 37.375 30.2501 38.4638 30.2501 39.8125V43.875H40.0001V40.2025C43.0226 39.2438 45.2814 36.5788 45.6064 33.3125ZM57.8751 53.625C59.6789 53.625 61.1251 52.1788 61.1251 50.375C61.1251 48.5713 59.6789 47.125 57.8751 47.125C56.0714 47.125 54.6251 48.5713 54.6251 50.375C54.6251 52.1788 56.0714 53.625 57.8751 53.625ZM60.3126 55.25H55.4376C53.0164 55.25 51.0339 53.495 50.6439 51.1875H47.3939C47.7189 54.4538 49.9776 57.1188 53.0001 58.0775V61.75H62.7501V57.6875C62.7501 56.3388 61.6614 55.25 60.3126 55.25Z" fill="#FF9900"/>
<defs>
<filter id="filter0_d_55_699" x="0" y="0" width="93" height="91" filterUnits="userSpaceOnUse" color-interpolation-filters="sRGB">
<feFlood flood-opacity="0" result="BackgroundImageFix"/>
<feColorMatrix in="SourceAlpha" type="matrix" values="0 0 0 0 0 0 0 0 0 0 0 0 0 0 0 0 0 0 127 0" result="hardAlpha"/>
<feOffset/>
<feGaussianBlur stdDeviation="6"/>
<feComposite in2="hardAlpha" operator="out"/>
<feColorMatrix type="matrix" values="0 0 0 0 0.683604 0 0 0 0 0.76973 0 0 0 0 0.870833 0 0 0 0.25 0"/>
<feBlend mode="normal" in2="BackgroundImageFix" result="effect1_dropShadow_55_699"/>
<feBlend mode="normal" in="SourceGraphic" in2="effect1_dropShadow_55_699" result="shape"/>
</filter>
</defs>
</svg>
