<svg width="93" height="91" viewBox="0 0 93 91" fill="none" xmlns="http://www.w3.org/2000/svg">
<g filter="url(#filter0_d_55_700)">
<rect x="12" y="12" width="69" height="67" rx="33.5" fill="white"/>
</g>
<path d="M49.1667 32.3333H42.8333V38.6667H49.1667V32.3333Z" fill="#FF9900"/>
<path d="M39.6667 51.3333H33.3333V57.6667H39.6667V51.3333Z" fill="#FF9900"/>
<path d="M39.6667 41.8333H33.3333V48.1667H39.6667V41.8333Z" fill="#FF9900"/>
<path d="M39.6667 32.3333H33.3333V38.6667H39.6667V32.3333Z" fill="#FF9900"/>
<path d="M58.6667 32.3333H52.3333V38.6667H58.6667V32.3333Z" fill="#FF9900"/>
<path d="M44.4167 54.2783V57.6667H47.7417L57.21 48.2142L53.8533 44.8575L44.4167 54.2783Z" fill="#FF9900"/>
<path d="M49.1667 45.0475V41.8333H42.8333V48.1667H46.0475L49.1667 45.0475Z" fill="#FF9900"/>
<path d="M60.0124 44.3033L57.7799 42.0708C57.4632 41.7542 56.9724 41.7542 56.6557 42.0708L54.9774 43.7492L58.334 47.1058L60.0124 45.4275C60.329 45.1108 60.329 44.62 60.0124 44.3033Z" fill="#FF9900"/>
<defs>
<filter id="filter0_d_55_700" x="0" y="0" width="93" height="91" filterUnits="userSpaceOnUse" color-interpolation-filters="sRGB">
<feFlood flood-opacity="0" result="BackgroundImageFix"/>
<feColorMatrix in="SourceAlpha" type="matrix" values="0 0 0 0 0 0 0 0 0 0 0 0 0 0 0 0 0 0 127 0" result="hardAlpha"/>
<feOffset/>
<feGaussianBlur stdDeviation="6"/>
<feComposite in2="hardAlpha" operator="out"/>
<feColorMatrix type="matrix" values="0 0 0 0 0.683604 0 0 0 0 0.76973 0 0 0 0 0.870833 0 0 0 0.25 0"/>
<feBlend mode="normal" in2="BackgroundImageFix" result="effect1_dropShadow_55_700"/>
<feBlend mode="normal" in="SourceGraphic" in2="effect1_dropShadow_55_700" result="shape"/>
</filter>
</defs>
</svg>
