<svg width="93" height="91" viewBox="0 0 93 91" fill="none" xmlns="http://www.w3.org/2000/svg">
<g filter="url(#filter0_d_55_701)">
<rect x="12" y="12" width="69" height="67" rx="33.5" fill="white"/>
</g>
<path d="M36 51C34.6167 51 33.3667 51.5667 32.4667 52.4667C30.5 54.4333 29.3333 62.6667 29.3333 62.6667C29.3333 62.6667 37.5667 61.5 39.5333 59.5333C40.4333 58.6333 41 57.3833 41 56C41 53.2333 38.7667 51 36 51ZM37.1833 57.1833C36.7167 57.65 33.5667 58.45 33.5667 58.45C33.5667 58.45 34.35 55.3167 34.8333 54.8333C35.1167 54.5167 35.5333 54.3333 36 54.3333C36.9167 54.3333 37.6667 55.0833 37.6667 56C37.6667 56.4667 37.4833 56.8833 37.1833 57.1833ZM55.0333 48.75C65.6333 38.15 62.1 29.9 62.1 29.9C62.1 29.9 53.85 26.3667 43.25 36.9667L39.1 36.1333C38.0167 35.9167 36.8833 36.2667 36.0833 37.05L29.3333 43.8167L37.6667 47.3833L44.6167 54.3333L48.1833 62.6667L54.9333 55.9167C55.7167 55.1333 56.0667 54 55.85 52.9L55.0333 48.75ZM38.35 44.05L35.1667 42.6833L38.45 39.4L40.85 39.8833C39.9 41.2667 39.05 42.7167 38.35 44.05ZM49.3167 56.8333L47.95 53.65C49.2833 52.95 50.7333 52.1 52.1 51.15L52.5833 53.55L49.3167 56.8333ZM52.6667 46.4C50.4667 48.6 47.0333 50.4 45.9333 50.95L41.05 46.0667C41.5833 44.9833 43.3833 41.55 45.6 39.3333C53.4 31.5333 59.3167 32.6833 59.3167 32.6833C59.3167 32.6833 60.4667 38.6 52.6667 46.4ZM51 44.3333C52.8333 44.3333 54.3333 42.8333 54.3333 41C54.3333 39.1667 52.8333 37.6667 51 37.6667C49.1667 37.6667 47.6667 39.1667 47.6667 41C47.6667 42.8333 49.1667 44.3333 51 44.3333Z" fill="#FF9900"/>
<defs>
<filter id="filter0_d_55_701" x="0" y="0" width="93" height="91" filterUnits="userSpaceOnUse" color-interpolation-filters="sRGB">
<feFlood flood-opacity="0" result="BackgroundImageFix"/>
<feColorMatrix in="SourceAlpha" type="matrix" values="0 0 0 0 0 0 0 0 0 0 0 0 0 0 0 0 0 0 127 0" result="hardAlpha"/>
<feOffset/>
<feGaussianBlur stdDeviation="6"/>
<feComposite in2="hardAlpha" operator="out"/>
<feColorMatrix type="matrix" values="0 0 0 0 0.683604 0 0 0 0 0.76973 0 0 0 0 0.870833 0 0 0 0.25 0"/>
<feBlend mode="normal" in2="BackgroundImageFix" result="effect1_dropShadow_55_701"/>
<feBlend mode="normal" in="SourceGraphic" in2="effect1_dropShadow_55_701" result="shape"/>
</filter>
</defs>
</svg>
